<svg width="234" height="299" viewBox="0 0 234 299" fill="none" xmlns="http://www.w3.org/2000/svg">
<rect width="234" height="299" rx="2" fill="#AE1BBA"/>
<path d="M17.368 40V22.696H20.536V36.808H34.648V40H17.368ZM39.3351 40C38.7271 40 38.1671 39.848 37.6551 39.544C37.1591 39.24 36.7591 38.84 36.4551 38.344C36.1511 37.832 35.9991 37.272 35.9991 36.664V26.056C35.9991 25.448 36.1511 24.896 36.4551 24.4C36.7591 23.888 37.1591 23.48 37.6551 23.176C38.1671 22.872 38.7271 22.72 39.3351 22.72H49.9431C50.5511 22.72 51.1031 22.872 51.5991 23.176C52.1111 23.48 52.5191 23.888 52.8231 24.4C53.1271 24.896 53.2791 25.448 53.2791 26.056V36.664C53.2791 37.272 53.1271 37.832 52.8231 38.344C52.5191 38.84 52.1111 39.24 51.5991 39.544C51.1031 39.848 50.5511 40 49.9431 40H39.3351ZM39.4551 36.808H49.7751C49.8551 36.808 49.9271 36.784 49.9911 36.736C50.0551 36.672 50.0871 36.6 50.0871 36.52V26.2C50.0871 26.12 50.0551 26.056 49.9911 26.008C49.9271 25.944 49.8551 25.912 49.7751 25.912H39.4551C39.3751 25.912 39.3031 25.944 39.2391 26.008C39.1911 26.056 39.1671 26.12 39.1671 26.2V36.52C39.1671 36.6 39.1911 36.672 39.2391 36.736C39.3031 36.784 39.3751 36.808 39.4551 36.808ZM64.6293 40L54.6213 22.72H58.3173L66.0453 36.16L73.7973 22.72H77.4693L67.4613 40H64.6293ZM79.2436 40V22.72H95.1556V25.912H82.4356V29.752H92.6596V32.968H82.4356V36.808H95.1556V40H79.2436Z" fill="white"/>
</svg>
